<mxfile host="app.diagrams.net" modified="2021-05-16T15:09:08.952Z" agent="5.0 (Macintosh; Intel Mac OS X 10_15_7) AppleWebKit/537.36 (KHTML, like Gecko) Chrome/90.0.4430.212 Safari/537.36" etag="OZSTB9ta9JX_CS2bSlCm" version="14.6.13" type="github">
  <diagram id="C5RBs43oDa-KdzZeNtuy" name="Page-1">
    <mxGraphModel dx="1442" dy="962" grid="1" gridSize="10" guides="1" tooltips="1" connect="1" arrows="1" fold="1" page="1" pageScale="1" pageWidth="1169" pageHeight="1654" math="0" shadow="0">
      <root>
        <mxCell id="WIyWlLk6GJQsqaUBKTNV-0" />
        <mxCell id="WIyWlLk6GJQsqaUBKTNV-1" parent="WIyWlLk6GJQsqaUBKTNV-0" />
        <mxCell id="tlqIygJ6Zjq7TcnObZLi-2" style="edgeStyle=orthogonalEdgeStyle;rounded=0;orthogonalLoop=1;jettySize=auto;html=1;exitX=0.5;exitY=1;exitDx=0;exitDy=0;" edge="1" parent="WIyWlLk6GJQsqaUBKTNV-1" target="tlqIygJ6Zjq7TcnObZLi-1">
          <mxGeometry relative="1" as="geometry">
            <mxPoint x="544" y="190" as="sourcePoint" />
          </mxGeometry>
        </mxCell>
        <mxCell id="tlqIygJ6Zjq7TcnObZLi-0" value="START" style="rounded=1;whiteSpace=wrap;html=1;" vertex="1" parent="WIyWlLk6GJQsqaUBKTNV-1">
          <mxGeometry x="484" y="150" width="120" height="60" as="geometry" />
        </mxCell>
        <mxCell id="tlqIygJ6Zjq7TcnObZLi-5" style="edgeStyle=orthogonalEdgeStyle;rounded=0;orthogonalLoop=1;jettySize=auto;html=1;exitX=0.5;exitY=1;exitDx=0;exitDy=0;" edge="1" parent="WIyWlLk6GJQsqaUBKTNV-1" source="tlqIygJ6Zjq7TcnObZLi-1" target="tlqIygJ6Zjq7TcnObZLi-3">
          <mxGeometry relative="1" as="geometry" />
        </mxCell>
        <mxCell id="tlqIygJ6Zjq7TcnObZLi-1" value="Generate a Random Word" style="rounded=1;whiteSpace=wrap;html=1;" vertex="1" parent="WIyWlLk6GJQsqaUBKTNV-1">
          <mxGeometry x="484" y="230" width="120" height="60" as="geometry" />
        </mxCell>
        <mxCell id="tlqIygJ6Zjq7TcnObZLi-7" style="edgeStyle=orthogonalEdgeStyle;rounded=0;orthogonalLoop=1;jettySize=auto;html=1;exitX=0.5;exitY=1;exitDx=0;exitDy=0;" edge="1" parent="WIyWlLk6GJQsqaUBKTNV-1" source="tlqIygJ6Zjq7TcnObZLi-3" target="tlqIygJ6Zjq7TcnObZLi-6">
          <mxGeometry relative="1" as="geometry" />
        </mxCell>
        <mxCell id="tlqIygJ6Zjq7TcnObZLi-3" value="Generate as many blanks as letters in word" style="rounded=1;whiteSpace=wrap;html=1;" vertex="1" parent="WIyWlLk6GJQsqaUBKTNV-1">
          <mxGeometry x="484" y="320" width="120" height="60" as="geometry" />
        </mxCell>
        <mxCell id="tlqIygJ6Zjq7TcnObZLi-15" style="edgeStyle=orthogonalEdgeStyle;rounded=0;orthogonalLoop=1;jettySize=auto;html=1;exitX=0.5;exitY=1;exitDx=0;exitDy=0;" edge="1" parent="WIyWlLk6GJQsqaUBKTNV-1" source="tlqIygJ6Zjq7TcnObZLi-6" target="tlqIygJ6Zjq7TcnObZLi-10">
          <mxGeometry relative="1" as="geometry" />
        </mxCell>
        <mxCell id="tlqIygJ6Zjq7TcnObZLi-6" value="Ask the User to guess a letter" style="rounded=1;whiteSpace=wrap;html=1;" vertex="1" parent="WIyWlLk6GJQsqaUBKTNV-1">
          <mxGeometry x="471" y="420" width="146" height="80" as="geometry" />
        </mxCell>
        <mxCell id="tlqIygJ6Zjq7TcnObZLi-17" style="edgeStyle=orthogonalEdgeStyle;rounded=0;orthogonalLoop=1;jettySize=auto;html=1;exitX=1;exitY=0.5;exitDx=0;exitDy=0;entryX=0.5;entryY=0;entryDx=0;entryDy=0;" edge="1" parent="WIyWlLk6GJQsqaUBKTNV-1" source="tlqIygJ6Zjq7TcnObZLi-10" target="tlqIygJ6Zjq7TcnObZLi-13">
          <mxGeometry relative="1" as="geometry" />
        </mxCell>
        <mxCell id="tlqIygJ6Zjq7TcnObZLi-18" style="edgeStyle=orthogonalEdgeStyle;rounded=0;orthogonalLoop=1;jettySize=auto;html=1;exitX=0;exitY=0.5;exitDx=0;exitDy=0;" edge="1" parent="WIyWlLk6GJQsqaUBKTNV-1" source="tlqIygJ6Zjq7TcnObZLi-10" target="tlqIygJ6Zjq7TcnObZLi-12">
          <mxGeometry relative="1" as="geometry" />
        </mxCell>
        <mxCell id="tlqIygJ6Zjq7TcnObZLi-10" value="Is the gussed letter in the word" style="rhombus;whiteSpace=wrap;html=1;" vertex="1" parent="WIyWlLk6GJQsqaUBKTNV-1">
          <mxGeometry x="434.5" y="530" width="219" height="220" as="geometry" />
        </mxCell>
        <mxCell id="tlqIygJ6Zjq7TcnObZLi-25" style="edgeStyle=orthogonalEdgeStyle;rounded=0;orthogonalLoop=1;jettySize=auto;html=1;exitX=0.5;exitY=1;exitDx=0;exitDy=0;entryX=0.5;entryY=0;entryDx=0;entryDy=0;" edge="1" parent="WIyWlLk6GJQsqaUBKTNV-1" source="tlqIygJ6Zjq7TcnObZLi-12" target="tlqIygJ6Zjq7TcnObZLi-22">
          <mxGeometry relative="1" as="geometry" />
        </mxCell>
        <mxCell id="tlqIygJ6Zjq7TcnObZLi-12" value="Then replace the blank with that letter" style="rounded=1;whiteSpace=wrap;html=1;" vertex="1" parent="WIyWlLk6GJQsqaUBKTNV-1">
          <mxGeometry x="340" y="740" width="120" height="60" as="geometry" />
        </mxCell>
        <mxCell id="tlqIygJ6Zjq7TcnObZLi-29" style="edgeStyle=orthogonalEdgeStyle;rounded=0;orthogonalLoop=1;jettySize=auto;html=1;exitX=0.5;exitY=1;exitDx=0;exitDy=0;" edge="1" parent="WIyWlLk6GJQsqaUBKTNV-1" source="tlqIygJ6Zjq7TcnObZLi-13" target="tlqIygJ6Zjq7TcnObZLi-26">
          <mxGeometry relative="1" as="geometry" />
        </mxCell>
        <mxCell id="tlqIygJ6Zjq7TcnObZLi-13" value="Lose a life" style="rounded=1;whiteSpace=wrap;html=1;" vertex="1" parent="WIyWlLk6GJQsqaUBKTNV-1">
          <mxGeometry x="670" y="740" width="120" height="60" as="geometry" />
        </mxCell>
        <mxCell id="tlqIygJ6Zjq7TcnObZLi-19" value="yes" style="text;html=1;align=center;verticalAlign=middle;resizable=0;points=[];autosize=1;strokeColor=none;" vertex="1" parent="WIyWlLk6GJQsqaUBKTNV-1">
          <mxGeometry x="365" y="670" width="30" height="20" as="geometry" />
        </mxCell>
        <mxCell id="tlqIygJ6Zjq7TcnObZLi-20" value="No" style="text;html=1;align=center;verticalAlign=middle;resizable=0;points=[];autosize=1;strokeColor=none;" vertex="1" parent="WIyWlLk6GJQsqaUBKTNV-1">
          <mxGeometry x="725" y="680" width="30" height="20" as="geometry" />
        </mxCell>
        <mxCell id="tlqIygJ6Zjq7TcnObZLi-23" style="edgeStyle=orthogonalEdgeStyle;rounded=0;orthogonalLoop=1;jettySize=auto;html=1;exitX=0;exitY=0.5;exitDx=0;exitDy=0;entryX=0;entryY=0.5;entryDx=0;entryDy=0;" edge="1" parent="WIyWlLk6GJQsqaUBKTNV-1" source="tlqIygJ6Zjq7TcnObZLi-22" target="tlqIygJ6Zjq7TcnObZLi-6">
          <mxGeometry relative="1" as="geometry" />
        </mxCell>
        <mxCell id="tlqIygJ6Zjq7TcnObZLi-33" style="edgeStyle=orthogonalEdgeStyle;rounded=0;orthogonalLoop=1;jettySize=auto;html=1;exitX=0.5;exitY=1;exitDx=0;exitDy=0;entryX=0;entryY=0.5;entryDx=0;entryDy=0;" edge="1" parent="WIyWlLk6GJQsqaUBKTNV-1" source="tlqIygJ6Zjq7TcnObZLi-22" target="tlqIygJ6Zjq7TcnObZLi-32">
          <mxGeometry relative="1" as="geometry" />
        </mxCell>
        <mxCell id="tlqIygJ6Zjq7TcnObZLi-22" value="Are all the blanks filled?" style="rhombus;whiteSpace=wrap;html=1;" vertex="1" parent="WIyWlLk6GJQsqaUBKTNV-1">
          <mxGeometry x="320" y="840" width="160" height="170" as="geometry" />
        </mxCell>
        <mxCell id="tlqIygJ6Zjq7TcnObZLi-24" value="NO" style="text;html=1;align=center;verticalAlign=middle;resizable=0;points=[];autosize=1;strokeColor=none;" vertex="1" parent="WIyWlLk6GJQsqaUBKTNV-1">
          <mxGeometry x="295" y="900" width="30" height="20" as="geometry" />
        </mxCell>
        <mxCell id="tlqIygJ6Zjq7TcnObZLi-30" style="edgeStyle=orthogonalEdgeStyle;rounded=0;orthogonalLoop=1;jettySize=auto;html=1;exitX=1;exitY=0.5;exitDx=0;exitDy=0;entryX=1;entryY=0.5;entryDx=0;entryDy=0;" edge="1" parent="WIyWlLk6GJQsqaUBKTNV-1" source="tlqIygJ6Zjq7TcnObZLi-26" target="tlqIygJ6Zjq7TcnObZLi-6">
          <mxGeometry relative="1" as="geometry" />
        </mxCell>
        <mxCell id="tlqIygJ6Zjq7TcnObZLi-37" style="edgeStyle=orthogonalEdgeStyle;rounded=0;orthogonalLoop=1;jettySize=auto;html=1;exitX=0.5;exitY=1;exitDx=0;exitDy=0;entryX=1;entryY=0.5;entryDx=0;entryDy=0;" edge="1" parent="WIyWlLk6GJQsqaUBKTNV-1" source="tlqIygJ6Zjq7TcnObZLi-26" target="tlqIygJ6Zjq7TcnObZLi-32">
          <mxGeometry relative="1" as="geometry" />
        </mxCell>
        <mxCell id="tlqIygJ6Zjq7TcnObZLi-26" value="have they run of the lives?" style="rhombus;whiteSpace=wrap;html=1;" vertex="1" parent="WIyWlLk6GJQsqaUBKTNV-1">
          <mxGeometry x="655" y="840" width="150" height="160" as="geometry" />
        </mxCell>
        <mxCell id="tlqIygJ6Zjq7TcnObZLi-31" value="No" style="text;html=1;align=center;verticalAlign=middle;resizable=0;points=[];autosize=1;strokeColor=none;" vertex="1" parent="WIyWlLk6GJQsqaUBKTNV-1">
          <mxGeometry x="800" y="900" width="30" height="20" as="geometry" />
        </mxCell>
        <mxCell id="tlqIygJ6Zjq7TcnObZLi-32" value="Game over" style="rounded=1;whiteSpace=wrap;html=1;" vertex="1" parent="WIyWlLk6GJQsqaUBKTNV-1">
          <mxGeometry x="510" y="1010" width="120" height="60" as="geometry" />
        </mxCell>
      </root>
    </mxGraphModel>
  </diagram>
</mxfile>
